<?xml version="1.0" encoding="UTF-8" ?>
<!DOCTYPE svg PUBLIC "-//W3C//DTD SVG 1.1//EN" "http://www.w3.org/Graphics/SVG/1.1/DTD/svg11.dtd">
<svg width="960pt" height="600pt" viewBox="0 0 960 600" version="1.1" xmlns="http://www.w3.org/2000/svg">
<g id="#8f8e8dff">
<path fill="#8f8e8d" opacity="1.00" d=" M 947.95 42.94 C 952.09 33.49 954.66 23.31 960.00 14.31 L 960.00 140.78 C 952.06 151.18 933.98 140.42 929.56 154.34 C 930.77 161.73 931.75 169.25 928.76 176.43 C 927.96 194.08 906.72 198.39 899.74 212.53 C 899.41 217.84 904.35 221.77 907.89 225.14 C 906.83 227.02 905.49 228.82 905.00 230.96 C 911.62 244.26 921.56 255.60 927.92 269.01 C 934.21 270.72 943.82 271.24 940.02 280.61 C 944.12 278.34 948.22 276.06 952.57 274.30 C 952.68 275.18 952.90 276.93 953.01 277.80 C 942.81 284.30 933.38 292.32 925.37 301.40 C 921.71 300.43 918.15 299.07 914.80 297.33 C 913.06 287.76 916.11 276.38 907.02 269.72 C 906.93 266.09 906.23 262.51 905.28 259.02 C 904.49 260.80 903.72 262.58 903.06 264.40 C 895.61 257.92 891.61 239.46 878.92 245.83 C 874.50 255.56 865.81 261.86 859.52 270.24 C 839.30 248.49 819.15 226.68 799.11 204.76 C 803.98 199.49 800.26 190.98 793.80 189.18 C 783.41 184.24 790.18 168.96 779.76 163.35 C 776.10 153.80 766.52 158.82 760.71 163.23 C 749.97 152.28 740.38 140.19 728.96 129.93 C 742.35 123.66 756.92 120.36 770.27 114.31 C 776.08 106.52 783.46 98.34 794.02 97.94 C 812.63 97.23 831.54 93.38 846.30 81.34 C 854.59 78.11 853.40 68.57 850.28 62.02 C 853.62 56.70 859.14 50.78 865.45 49.83 C 878.94 62.13 898.50 66.01 916.28 64.08 C 927.97 59.21 938.96 51.80 947.95 42.94 M 843.16 155.94 C 845.45 172.94 869.01 164.24 876.44 176.02 C 872.94 182.63 862.19 182.92 860.40 191.50 C 854.87 197.44 862.85 202.93 868.67 203.38 C 871.91 192.60 882.88 187.54 887.94 177.97 C 898.02 164.33 896.94 147.52 898.28 131.65 C 899.09 131.63 899.92 131.60 900.75 131.59 C 900.64 129.05 900.71 126.51 900.82 123.97 C 878.71 122.47 843.93 127.74 843.16 155.94 Z" />
<path fill="#8f8e8d" opacity="1.00" d=" M 533.37 107.79 C 542.48 94.31 544.31 76.55 556.01 64.70 C 554.99 76.65 544.40 84.60 542.04 96.11 C 539.94 107.21 540.46 118.63 539.05 129.83 C 539.44 141.85 550.41 150.48 548.38 163.20 C 549.86 162.33 551.34 161.46 552.84 160.59 C 552.63 167.86 547.52 177.89 555.72 182.47 C 552.18 195.44 548.61 208.40 544.73 221.27 C 524.76 224.41 504.31 224.96 484.61 229.51 C 480.08 231.16 475.45 232.55 470.68 233.29 C 474.21 221.86 473.65 209.43 470.19 198.06 C 478.53 196.68 487.51 193.77 493.22 187.24 C 496.88 179.84 498.59 170.44 507.03 166.72 C 502.95 174.35 499.51 182.30 495.24 189.82 C 506.11 187.35 529.19 195.73 528.06 178.07 C 526.96 158.80 535.33 139.58 529.63 120.61 C 527.37 107.61 534.86 95.79 535.21 82.95 C 542.89 89.03 531.26 99.41 533.37 107.79 Z" />
<path fill="#8f8e8d" opacity="1.00" d=" M 628.06 108.62 C 641.39 114.89 653.08 124.21 666.23 130.95 C 663.93 130.84 661.64 130.78 659.35 130.70 C 648.09 124.73 636.44 118.48 628.06 108.62 Z" />
<path fill="#8f8e8d" opacity="1.00" d=" M 288.72 158.92 C 289.83 157.95 290.97 157.03 292.11 156.09 C 300.42 165.74 307.79 181.15 322.83 179.68 C 325.65 187.75 335.94 184.67 342.57 185.82 C 343.82 188.27 345.37 190.68 347.80 192.12 C 358.13 199.56 370.95 202.31 382.90 206.14 C 390.48 208.80 399.26 207.38 405.30 201.96 C 412.56 207.98 416.05 220.24 408.37 227.36 C 395.80 239.21 379.09 245.35 363.03 250.90 C 364.62 249.02 365.96 246.95 367.25 244.85 C 356.84 243.14 346.26 243.08 335.74 243.11 C 326.49 242.62 317.23 242.73 307.98 242.17 C 296.26 240.23 282.88 245.52 272.49 238.20 C 278.59 237.35 284.74 237.98 290.85 238.36 C 301.60 238.93 312.38 237.92 323.12 239.03 C 337.34 240.16 351.64 239.82 365.87 240.81 C 368.94 241.62 369.60 238.43 370.37 236.23 C 362.38 221.69 346.33 215.07 335.22 203.42 C 330.95 199.30 325.18 197.05 319.23 198.13 C 313.86 198.43 308.49 198.71 303.11 198.93 C 303.51 197.99 303.91 197.06 304.32 196.13 C 308.27 194.24 311.55 191.28 314.08 187.72 C 310.85 183.94 306.76 180.90 302.06 179.20 C 299.28 171.48 294.32 164.83 288.72 158.92 Z" />
<path fill="#8f8e8d" opacity="1.00" d=" M 632.97 170.24 C 644.04 166.29 653.90 159.76 664.69 155.18 C 674.75 165.48 684.33 176.22 694.11 186.78 C 671.25 192.42 644.10 189.83 625.78 207.02 C 628.52 194.83 633.97 183.01 632.97 170.24 Z" />
<path fill="#8f8e8d" opacity="1.00" d=" M 675.53 208.55 C 688.19 205.66 701.53 206.90 714.29 208.98 C 716.47 211.40 718.82 213.65 721.12 215.97 C 713.69 219.01 705.32 219.18 698.61 214.35 C 680.47 210.02 664.92 221.01 650.72 230.73 C 650.16 229.59 649.64 228.45 649.06 227.33 C 659.12 222.86 666.48 214.47 675.53 208.55 Z" />
<path fill="#8f8e8d" opacity="1.00" d=" M 462.06 249.78 C 486.17 249.28 510.80 249.79 532.31 262.22 C 532.19 264.11 532.08 266.01 531.88 267.90 C 531.73 268.49 531.43 269.66 531.28 270.24 C 514.71 261.68 495.97 257.25 477.36 257.57 C 470.69 258.59 463.56 259.01 457.51 255.43 C 459.08 253.58 460.60 251.71 462.06 249.78 Z" />
<path fill="#8f8e8d" opacity="1.00" d=" M 678.97 294.16 C 705.81 279.76 738.47 280.67 763.28 261.71 C 770.02 268.97 776.81 276.18 783.42 283.57 C 761.81 297.72 733.60 298.99 714.83 318.48 C 711.46 321.81 708.84 325.81 706.53 329.93 C 703.85 338.38 696.62 342.50 688.11 339.19 C 679.34 337.06 677.74 347.70 673.44 352.75 C 674.32 347.83 675.84 343.06 677.27 338.29 C 671.93 338.06 666.59 337.94 661.25 337.83 C 645.47 320.40 672.51 308.60 678.97 294.16 Z" />
<path fill="#8f8e8d" opacity="1.00" d=" M 316.39 273.30 C 318.83 272.80 321.28 272.36 323.73 271.92 C 323.64 274.63 323.65 277.34 323.68 280.05 C 321.07 280.46 318.46 280.87 315.85 281.30 C 316.55 282.88 317.24 284.47 317.94 286.05 C 314.68 286.57 311.40 286.90 308.11 287.10 C 308.44 286.39 309.11 284.96 309.45 284.25 C 302.87 280.10 296.05 285.74 289.59 287.28 C 278.67 286.86 267.46 285.68 257.17 281.84 C 260.70 280.35 264.22 278.80 267.96 277.90 C 270.27 278.21 272.54 278.72 274.83 279.17 C 281.47 280.72 288.30 279.51 294.83 278.01 C 299.15 277.02 303.49 276.12 307.84 275.22 C 309.32 274.92 310.79 274.57 312.27 274.22 C 313.63 273.90 315.01 273.59 316.39 273.30 Z" />
<path fill="#8f8e8d" opacity="1.00" d=" M 192.83 294.17 C 195.07 288.50 197.31 282.55 202.13 278.51 C 200.34 285.82 195.90 292.00 192.64 298.67 C 200.33 297.13 207.90 295.04 215.64 293.73 C 226.04 291.65 236.51 289.95 246.89 287.80 C 247.11 285.04 247.33 282.27 247.54 279.51 C 256.18 286.97 267.53 288.50 278.43 289.84 C 269.73 291.84 260.66 291.84 252.06 294.10 C 250.67 298.80 251.31 303.78 250.83 308.60 C 249.16 304.29 248.37 299.71 248.28 295.10 C 238.53 296.99 229.30 298.42 221.89 305.48 C 217.74 307.68 215.64 312.04 213.06 315.73 C 209.37 319.67 204.71 322.48 200.60 325.94 C 199.42 324.72 198.23 323.51 197.02 322.32 C 199.87 318.42 203.13 313.74 202.14 308.68 C 197.91 303.67 189.68 307.41 186.32 311.83 C 183.36 308.79 180.52 305.64 177.48 302.68 C 182.92 300.74 190.82 300.80 192.83 294.17 Z" />
<path fill="#8f8e8d" opacity="1.00" d=" M 632.71 316.70 C 633.65 307.02 630.70 296.52 635.61 287.58 C 645.17 292.13 654.81 296.84 665.39 298.45 C 658.86 310.32 642.33 320.35 649.78 336.09 C 643.37 334.81 636.57 334.55 630.37 336.93 C 627.09 338.37 624.20 340.53 621.47 342.81 C 611.94 337.87 602.24 333.13 591.76 330.60 C 595.94 310.97 618.40 318.10 632.71 316.70 Z" />
<path fill="#8f8e8d" opacity="1.00" d=" M 322.14 318.00 C 325.81 315.34 329.39 312.56 332.96 309.76 C 334.85 313.62 336.62 317.54 338.56 321.38 C 333.16 322.88 327.82 324.64 322.78 327.09 C 327.11 331.65 331.88 335.78 336.25 340.31 C 334.97 340.75 333.69 341.18 332.40 341.58 C 330.39 340.19 328.36 338.83 326.31 337.51 C 325.20 339.52 324.11 341.54 323.04 343.58 C 324.39 343.39 325.75 343.18 327.11 342.95 C 321.96 344.13 316.78 345.17 311.54 345.83 C 308.16 344.88 304.55 344.68 301.55 346.79 C 296.69 348.31 291.47 348.67 286.64 346.87 C 286.33 345.76 286.02 344.66 285.71 343.56 C 276.39 343.36 267.00 346.99 257.81 343.77 C 246.09 339.41 231.81 338.29 221.14 345.90 C 219.43 344.24 217.60 342.70 215.82 341.12 C 217.65 340.35 219.48 339.57 221.37 338.93 C 235.22 335.93 249.43 337.88 263.24 340.03 C 279.93 342.05 297.05 340.30 312.40 333.19 C 317.26 329.34 319.80 323.55 322.14 318.00 Z" />
<path fill="#8f8e8d" opacity="1.00" d=" M 876.83 362.83 C 891.11 347.65 903.96 330.24 910.36 310.11 C 914.36 311.88 918.56 313.16 922.77 314.36 C 918.40 326.71 927.98 338.75 927.48 351.36 C 927.56 360.19 925.43 369.01 927.35 377.81 C 917.68 363.70 927.57 340.38 913.85 327.92 C 908.26 331.96 904.96 338.67 898.54 341.88 C 899.66 342.40 900.79 342.92 901.93 343.44 C 887.60 358.43 872.87 373.43 853.82 382.41 C 851.83 381.77 849.81 381.30 847.79 380.88 C 855.62 371.94 868.71 371.39 876.83 362.83 Z" />
<path fill="#8f8e8d" opacity="1.00" d=" M 685.71 393.95 C 694.19 385.99 695.99 369.35 711.12 371.20 C 702.98 379.53 694.71 387.72 686.51 396.00 C 686.31 395.49 685.91 394.46 685.71 393.95 Z" />
<path fill="#8f8e8d" opacity="1.00" d=" M 158.66 372.57 C 159.47 373.37 160.28 374.17 161.10 374.97 C 156.60 380.07 147.43 383.97 150.27 392.21 C 149.22 390.85 148.17 389.48 147.12 388.12 C 130.06 405.62 141.49 430.97 142.29 452.00 C 141.71 452.20 140.57 452.60 139.99 452.79 C 139.85 436.24 135.76 420.17 131.73 404.23 C 109.83 424.39 84.11 441.27 67.50 466.51 C 54.15 475.24 55.46 492.62 46.91 504.90 C 45.22 505.36 43.52 505.75 41.83 506.18 C 45.49 494.91 53.02 485.34 55.43 473.39 C 68.29 460.89 77.37 444.82 91.17 433.19 C 111.07 419.58 128.44 402.69 145.04 385.36 C 145.79 384.68 146.55 384.01 147.31 383.34 C 150.42 380.66 153.42 377.84 156.27 374.88 C 156.58 374.59 157.19 374.00 157.50 373.70 C 157.79 373.42 158.37 372.86 158.66 372.57 Z" />
<path fill="#8f8e8d" opacity="1.00" d=" M 772.11 398.88 C 779.91 390.77 787.91 382.85 795.97 375.01 C 802.46 386.37 781.61 387.95 781.69 398.96 C 771.57 419.99 780.82 452.00 755.88 464.14 C 774.94 447.82 771.60 421.37 772.11 398.88 Z" />
<path fill="#8f8e8d" opacity="1.00" d=" M 471.92 392.99 C 476.31 389.02 478.57 382.47 484.97 381.06 C 483.02 384.70 480.33 387.86 477.63 390.95 C 485.20 388.81 492.43 385.71 499.70 382.76 C 498.16 388.08 496.72 393.43 495.08 398.73 C 489.90 398.92 484.84 400.14 479.90 401.60 C 483.95 403.71 488.10 405.62 492.31 407.42 C 491.92 408.69 491.56 409.98 491.24 411.28 C 485.43 409.41 479.64 407.43 473.66 406.15 C 474.35 416.08 480.63 424.16 485.78 432.24 C 485.33 433.81 484.89 435.38 484.46 436.96 C 479.50 426.89 472.37 417.95 468.70 407.24 C 465.70 408.87 462.68 410.45 459.69 412.10 C 457.74 408.21 455.89 404.29 454.14 400.32 C 455.36 399.57 456.59 398.83 457.82 398.09 C 455.27 396.34 452.74 394.53 450.62 392.27 C 457.52 393.54 465.43 397.71 471.92 392.99 Z" />
<path fill="#8f8e8d" opacity="1.00" d=" M 846.59 385.84 C 847.83 386.41 849.05 387.02 850.25 387.68 C 847.03 398.25 844.54 409.46 837.68 418.41 C 838.51 407.05 847.20 397.57 846.59 385.84 Z" />
<path fill="#8f8e8d" opacity="1.00" d=" M 372.03 457.31 C 375.36 460.08 378.50 463.06 381.97 465.65 C 379.91 475.97 371.23 481.27 362.44 485.41 C 341.11 494.31 326.86 512.76 308.83 526.12 C 308.88 524.78 308.91 523.45 308.92 522.12 C 322.44 510.51 333.95 496.71 349.06 487.03 C 356.25 481.22 356.50 464.20 368.76 467.34 C 369.88 464.00 370.95 460.65 372.03 457.31 Z" />
</g>
<g id="#545453ff">
<path fill="#545453" opacity="1.00" d=" M 88.22 21.09 C 88.96 21.10 90.44 21.12 91.18 21.14 C 92.49 31.02 90.23 40.83 89.88 50.69 C 100.95 53.16 111.97 50.07 122.74 47.71 C 130.85 45.59 135.65 54.72 143.12 55.74 C 151.90 56.85 160.92 54.70 169.55 57.30 C 156.38 59.52 141.33 60.55 129.64 52.93 C 116.69 50.12 104.44 56.56 92.01 58.98 C 88.37 78.11 73.57 99.69 86.00 118.07 C 100.56 125.63 117.96 125.29 134.06 125.02 C 152.14 126.22 168.54 139.27 187.01 135.14 C 206.16 134.96 226.17 129.48 240.74 116.76 C 264.88 117.11 287.19 105.73 311.18 104.46 C 311.09 105.10 310.90 106.39 310.81 107.03 C 295.32 109.35 279.93 112.04 265.43 118.35 C 252.82 119.03 241.75 124.75 230.65 130.20 C 226.61 131.52 222.79 133.67 220.05 136.99 C 209.41 138.35 198.16 139.72 189.31 146.35 C 192.57 150.96 197.03 154.53 201.95 157.24 C 192.08 167.68 182.57 178.46 172.54 188.75 C 165.08 185.46 158.91 179.73 151.22 176.99 C 142.11 175.14 132.81 177.34 123.75 178.52 C 130.44 191.50 143.76 198.95 153.39 209.59 C 144.89 218.98 136.33 228.32 127.60 237.50 C 123.33 234.35 119.64 227.95 113.75 228.60 C 107.32 239.21 103.59 251.65 103.15 264.10 C 97.05 270.16 92.14 277.46 85.08 282.50 C 88.91 274.75 81.63 267.45 83.60 259.64 C 86.61 250.27 94.93 242.94 94.43 232.36 C 99.55 208.66 87.50 179.73 62.81 173.06 C 52.95 169.84 42.16 164.75 32.02 170.04 C 21.06 173.67 11.34 162.89 0.00 165.82 L 0.00 98.48 C 11.55 111.04 29.54 110.21 45.02 112.78 C 52.03 109.66 60.68 109.14 66.85 104.85 C 70.08 92.47 74.57 80.33 76.70 67.63 C 85.07 53.51 88.84 37.51 88.22 21.09 Z" />
<path fill="#545453" opacity="1.00" d=" M 252.94 197.55 C 260.14 189.85 267.14 181.97 274.52 174.44 C 283.37 177.70 292.78 178.27 302.06 179.20 C 306.76 180.90 310.85 183.94 314.08 187.72 C 306.27 186.77 298.40 186.01 290.52 186.40 C 293.85 191.20 299.08 193.90 304.32 196.13 C 303.91 197.06 303.51 197.99 303.11 198.93 C 308.49 198.71 313.86 198.43 319.23 198.13 C 316.42 198.37 313.62 198.76 310.82 199.17 C 318.53 202.36 326.89 203.79 335.22 203.42 C 346.33 215.07 362.38 221.69 370.37 236.23 C 353.62 230.58 334.30 234.11 319.18 223.57 C 311.81 217.90 301.45 215.52 292.84 219.80 C 292.92 220.40 293.09 221.61 293.17 222.21 C 305.22 223.42 310.25 238.23 323.12 239.03 C 312.38 237.92 301.60 238.93 290.85 238.36 C 294.04 238.43 297.24 238.25 300.43 238.02 C 289.53 231.89 275.84 229.83 264.07 234.71 C 276.87 249.81 290.58 265.25 307.84 275.22 C 303.49 276.12 299.15 277.02 294.83 278.01 C 279.04 272.12 276.75 250.45 259.70 247.21 C 257.51 259.56 262.95 273.83 274.83 279.17 C 272.54 278.72 270.27 278.21 267.96 277.90 C 265.17 273.26 260.97 269.75 256.60 266.66 C 255.29 270.87 254.06 275.10 252.76 279.32 C 251.41 278.62 250.02 277.99 248.64 277.35 C 255.30 262.69 249.27 248.17 243.47 234.54 C 235.59 234.27 227.67 234.43 219.90 235.83 C 219.44 235.90 218.52 236.04 218.06 236.11 C 220.99 232.17 224.23 228.48 227.61 224.93 C 232.00 225.71 236.38 226.52 240.78 227.22 C 241.09 222.88 238.48 219.36 235.67 216.37 C 238.33 213.57 240.91 210.69 243.47 207.79 C 247.55 213.39 252.37 218.39 257.11 223.43 C 268.46 220.11 280.72 220.11 291.50 214.90 C 278.68 209.04 265.62 203.72 252.94 197.55 Z" />
<path fill="#545453" opacity="1.00" d=" M 347.80 192.12 C 358.36 194.08 368.95 199.11 379.76 195.38 C 379.96 199.15 380.49 203.07 382.90 206.14 C 370.95 202.31 358.13 199.56 347.80 192.12 Z" />
<path fill="#545453" opacity="1.00" d=" M 470.68 233.29 C 475.45 232.55 480.08 231.16 484.61 229.51 C 502.40 238.09 522.61 235.72 541.43 233.12 C 538.26 244.71 535.10 256.32 531.88 267.90 C 532.08 266.01 532.19 264.11 532.31 262.22 C 510.80 249.79 486.17 249.28 462.06 249.78 C 465.79 244.78 468.65 239.17 470.68 233.29 Z" />
<path fill="#545453" opacity="1.00" d=" M 722.47 241.95 C 728.58 242.31 734.24 239.86 739.83 237.78 C 737.63 239.33 735.43 240.88 733.26 242.47 C 737.48 243.13 741.75 243.42 746.02 243.25 C 747.05 244.40 748.11 245.54 749.20 246.66 C 738.75 246.61 728.30 245.97 717.86 246.54 C 719.29 244.91 720.86 243.41 722.47 241.95 Z" />
<path fill="#545453" opacity="1.00" d=" M 307.98 242.17 C 317.23 242.73 326.49 242.62 335.74 243.11 C 343.53 246.33 351.57 248.87 359.35 252.11 C 356.04 253.16 352.74 254.21 349.44 255.29 C 338.36 251.06 326.90 247.81 315.35 245.12 C 315.51 254.52 316.51 263.89 316.39 273.30 C 315.01 273.59 313.63 273.90 312.27 274.22 C 309.52 263.71 310.35 252.74 307.98 242.17 Z" />
<path fill="#545453" opacity="1.00" d=" M 674.12 254.28 C 688.59 252.14 701.98 245.20 716.52 243.91 C 715.77 245.11 715.08 246.34 714.38 247.56 C 701.39 249.68 688.88 254.19 676.05 257.15 C 675.36 256.22 674.72 255.26 674.12 254.28 Z" />
<path fill="#545453" opacity="1.00" d=" M 452.76 260.48 C 454.41 258.86 455.99 257.17 457.51 255.43 C 463.56 259.01 470.69 258.59 477.36 257.57 C 478.69 268.61 488.23 275.40 495.06 283.17 C 485.69 284.08 476.19 286.63 466.81 284.43 C 467.49 284.10 468.85 283.43 469.53 283.09 C 470.96 272.04 460.54 265.86 452.76 260.48 Z" />
<path fill="#545453" opacity="1.00" d=" M 610.15 260.94 C 630.48 258.98 651.25 259.90 671.20 254.97 C 671.86 255.87 672.52 256.78 673.14 257.73 C 659.70 260.22 646.83 265.01 633.44 267.62 C 625.46 265.35 617.11 266.70 608.96 266.10 C 609.34 264.37 609.73 262.65 610.15 260.94 Z" />
<path fill="#545453" opacity="1.00" d=" M 178.53 278.30 C 182.68 273.74 186.76 269.12 191.00 264.64 C 199.75 273.88 207.00 284.40 215.64 293.73 C 207.90 295.04 200.33 297.13 192.64 298.67 C 195.90 292.00 200.34 285.82 202.13 278.51 C 197.31 282.55 195.07 288.50 192.83 294.17 C 188.17 288.78 184.05 282.89 178.53 278.30 Z" />
<path fill="#545453" opacity="1.00" d=" M 302.77 290.71 C 309.91 290.08 317.10 290.18 324.21 289.24 C 324.73 293.09 325.98 296.82 327.78 300.27 C 324.40 297.02 320.43 294.48 316.28 292.35 C 315.14 301.34 317.00 310.47 322.14 318.00 C 319.80 323.55 317.26 329.34 312.40 333.19 C 312.41 322.87 312.04 312.57 312.05 302.25 C 298.22 306.97 293.44 323.86 279.88 328.47 C 291.81 317.56 301.11 304.64 309.30 290.73 C 307.12 290.68 304.94 290.64 302.77 290.71 Z" />
<path fill="#545453" opacity="1.00" d=" M 74.52 311.45 C 71.54 305.25 76.47 298.73 79.85 293.74 C 83.64 298.35 88.13 302.34 92.33 306.57 C 92.59 312.05 94.34 317.30 97.14 321.99 C 99.94 321.20 102.75 320.39 105.54 319.53 C 107.24 321.31 108.96 323.08 110.72 324.81 C 107.13 325.81 103.42 325.54 99.97 324.20 C 105.14 330.62 109.31 337.96 116.10 342.91 C 126.30 350.65 128.18 364.99 138.45 372.59 C 143.68 376.53 150.16 373.10 155.52 371.29 C 156.18 372.09 156.84 372.90 157.50 373.70 C 157.19 374.00 156.58 374.59 156.27 374.88 C 151.71 375.49 147.15 376.14 142.69 377.28 C 144.20 379.32 145.75 381.34 147.31 383.34 C 146.55 384.01 145.79 384.68 145.04 385.36 C 137.93 376.05 128.14 369.00 122.32 358.69 C 118.04 352.15 113.83 343.47 105.33 342.06 C 96.50 353.80 97.26 370.11 89.72 382.79 C 88.79 382.48 87.87 382.18 86.95 381.88 C 91.87 365.68 104.22 346.00 94.13 329.93 C 82.08 325.95 66.83 337.45 55.02 329.20 C 66.37 325.46 78.86 329.38 89.94 324.21 C 86.67 317.79 78.99 316.49 74.52 311.45 Z" />
<path fill="#545453" opacity="1.00" d=" M 213.06 315.73 C 215.64 312.04 217.74 307.68 221.89 305.48 C 231.24 322.09 252.37 324.93 263.24 340.03 C 249.43 337.88 235.22 335.93 221.37 338.93 C 221.05 330.53 218.11 322.43 213.06 315.73 Z" />
<path fill="#545453" opacity="1.00" d=" M 473.34 318.47 C 475.49 318.71 477.61 319.18 479.75 319.51 C 477.75 333.13 481.73 347.29 492.26 356.51 C 499.78 352.69 503.91 344.80 511.27 340.83 C 510.52 343.51 509.82 346.21 509.09 348.91 C 501.60 352.65 496.47 360.43 487.66 361.53 C 488.64 360.22 489.64 358.92 490.65 357.63 C 488.01 354.23 485.10 351.05 481.70 348.42 C 481.49 356.31 485.31 363.95 483.48 371.84 C 478.30 354.44 479.19 335.69 473.34 318.47 Z" />
<path fill="#545453" opacity="1.00" d=" M 706.53 329.93 C 708.84 325.81 711.46 321.81 714.83 318.48 C 727.38 323.76 741.31 323.85 754.16 328.25 C 752.13 330.23 750.13 332.22 748.15 334.23 C 734.99 325.76 719.87 335.06 706.53 329.93 Z" />
<path fill="#545453" opacity="1.00" d=" M 621.47 342.81 C 624.20 340.53 627.09 338.37 630.37 336.93 C 633.59 344.05 641.43 346.26 648.24 348.42 C 639.46 358.18 629.97 346.43 621.47 342.81 Z" />
<path fill="#545453" opacity="1.00" d=" M 221.14 345.90 C 231.81 338.29 246.09 339.41 257.81 343.77 C 267.00 346.99 276.39 343.36 285.71 343.56 C 286.02 344.66 286.33 345.76 286.64 346.87 C 278.79 349.78 272.97 356.66 264.34 357.92 C 254.74 349.95 244.57 354.50 236.98 362.28 C 231.36 357.15 226.16 351.61 221.14 345.90 Z" />
<path fill="#545453" opacity="1.00" d=" M 814.85 355.80 C 818.06 352.46 821.74 349.63 825.08 346.43 C 823.38 349.74 819.34 354.26 823.76 357.18 C 831.77 363.99 841.25 369.56 844.57 380.26 C 844.00 380.15 842.87 379.94 842.31 379.83 C 834.55 370.58 826.62 359.99 814.85 355.80 Z" />
<path fill="#545453" opacity="1.00" d=" M 273.54 362.96 C 290.17 354.51 308.39 355.62 326.37 356.91 C 324.24 365.14 317.66 370.50 309.37 371.72 C 299.71 360.43 283.70 372.62 273.54 362.96 Z" />
<path fill="#545453" opacity="1.00" d=" M 360.02 363.43 C 362.11 367.51 363.80 371.78 365.77 375.91 C 359.97 374.54 354.05 373.57 348.07 373.69 C 352.23 370.48 356.37 367.22 360.02 363.43 Z" />
<path fill="#545453" opacity="1.00" d=" M 332.22 388.60 C 333.80 386.68 335.33 384.72 337.04 382.91 C 342.42 393.16 350.52 401.72 355.15 412.40 C 354.21 413.64 353.23 414.86 352.20 416.03 C 346.77 406.10 341.72 395.35 332.22 388.60 Z" />
<path fill="#545453" opacity="1.00" d=" M 574.87 387.55 C 580.63 392.29 584.63 398.74 590.20 403.62 C 601.09 408.82 604.90 421.79 615.70 427.30 C 623.41 430.69 624.09 439.59 628.14 445.96 C 634.19 442.75 640.08 439.23 645.94 435.70 C 645.22 436.92 644.56 438.19 643.89 439.45 C 647.06 439.60 650.23 439.80 653.40 439.85 C 645.58 442.38 637.78 445.18 630.66 449.34 C 632.38 450.91 634.12 452.48 636.01 453.85 C 630.09 452.20 623.92 450.94 617.76 451.74 C 619.92 450.35 622.00 448.83 624.14 447.38 C 614.40 433.14 599.57 423.42 589.67 409.31 C 584.96 402.65 580.09 396.03 573.95 390.60 C 574.26 389.58 574.57 388.56 574.87 387.55 Z" />
<path fill="#545453" opacity="1.00" d=" M 187.11 400.88 C 190.27 404.03 193.27 407.34 196.41 410.52 C 194.57 419.80 196.99 429.07 198.51 438.20 C 197.44 438.55 196.37 438.91 195.31 439.26 C 192.32 434.42 189.36 429.55 186.49 424.64 C 179.45 429.91 172.74 436.88 171.72 446.05 C 165.79 447.46 159.71 448.02 153.68 448.83 C 166.85 434.60 179.16 418.70 187.11 400.88 Z" />
<path fill="#545453" opacity="1.00" d=" M 312.58 403.74 C 313.62 403.04 314.67 402.36 315.71 401.66 C 315.89 405.47 315.99 409.29 316.05 413.10 C 317.11 413.30 318.18 413.51 319.25 413.71 C 314.52 413.57 309.71 414.04 305.04 413.03 C 307.59 413.23 310.14 413.23 312.69 413.25 C 312.64 410.07 312.62 406.90 312.58 403.74 Z" />
<path fill="#545453" opacity="1.00" d=" M 355.39 420.84 C 356.50 419.86 357.65 418.92 358.80 417.98 C 365.78 427.45 374.13 435.82 382.51 444.04 C 386.22 440.09 390.20 436.40 394.57 433.19 C 395.92 435.49 397.44 437.68 398.96 439.88 C 396.83 443.08 394.99 446.48 393.55 450.05 C 416.62 447.79 436.83 464.26 460.54 462.50 C 456.34 463.06 452.13 463.44 447.92 463.93 C 448.42 465.44 448.92 466.96 449.41 468.50 C 435.57 456.00 416.00 462.05 399.94 455.72 C 387.24 450.03 373.05 446.37 362.98 436.15 C 360.34 431.11 357.82 426.00 355.39 420.84 Z" />
<path fill="#545453" opacity="1.00" d=" M 313.40 422.47 C 314.57 422.61 315.76 422.78 316.94 422.96 C 320.02 431.41 323.40 440.72 320.36 449.70 C 318.33 440.53 318.83 430.60 313.40 422.47 Z" />
<path fill="#545453" opacity="1.00" d=" M 198.11 449.59 C 199.37 449.13 200.63 448.67 201.91 448.23 C 202.90 451.28 203.95 454.31 205.06 457.32 C 203.90 457.92 202.74 458.53 201.58 459.13 C 200.53 455.91 199.38 452.73 198.11 449.59 Z" />
<path fill="#545453" opacity="1.00" d=" M 155.92 457.65 C 159.90 457.30 163.90 457.33 167.90 457.43 C 165.99 463.75 165.48 470.37 165.64 476.94 C 162.99 478.84 160.58 481.04 158.15 483.21 C 157.38 474.69 156.81 466.16 155.92 457.65 Z" />
<path fill="#545453" opacity="1.00" d=" M 201.66 466.61 C 203.43 465.75 205.17 464.85 206.93 463.98 C 207.69 475.86 215.89 484.41 221.32 494.26 C 214.61 485.14 201.19 479.28 201.66 466.61 Z" />
<path fill="#545453" opacity="1.00" d=" M 157.60 491.65 C 160.53 489.53 163.68 487.76 166.69 485.77 C 168.98 499.17 177.44 509.36 185.04 520.05 C 178.17 514.97 174.20 507.19 168.15 501.30 C 166.34 517.39 167.90 533.72 165.20 549.71 C 166.11 557.61 169.98 565.44 167.55 573.51 C 164.67 563.63 163.82 553.27 160.62 543.44 C 158.44 526.32 161.89 508.50 157.60 491.65 Z" />
<path fill="#545453" opacity="1.00" d=" M 414.03 509.84 C 418.32 513.79 422.29 518.19 424.66 523.59 C 424.93 531.95 427.24 540.68 423.72 548.71 C 421.65 535.41 422.38 521.37 414.03 509.84 Z" />
<path fill="#545453" opacity="1.00" d=" M 453.98 551.93 C 455.80 552.66 457.65 553.30 459.51 553.92 C 464.02 561.37 472.07 566.21 475.03 574.68 C 474.65 575.12 473.89 576.00 473.51 576.44 C 468.13 567.42 460.43 560.15 453.98 551.93 Z" />
</g>
<g id="#040707ff">
<path fill="#040707" opacity="1.00" d=" M 220.05 136.99 C 222.79 133.67 226.61 131.52 230.65 130.20 C 258.08 132.62 285.74 130.39 313.26 131.39 C 306.16 139.59 299.35 148.10 292.11 156.09 C 290.97 157.03 289.83 157.95 288.72 158.92 C 283.55 163.68 279.24 169.26 274.52 174.44 C 267.14 181.97 260.14 189.85 252.94 197.55 C 249.72 200.91 246.53 204.29 243.47 207.79 C 240.91 210.69 238.33 213.57 235.67 216.37 C 232.97 219.21 230.28 222.06 227.61 224.93 C 224.23 228.48 220.99 232.17 218.06 236.11 C 218.52 236.04 219.44 235.90 219.90 235.83 C 208.21 242.95 200.75 255.21 191.00 264.64 C 186.76 269.12 182.68 273.74 178.53 278.30 C 174.30 282.69 169.99 287.02 166.12 291.73 C 169.79 295.50 173.66 299.06 177.48 302.68 C 180.52 305.64 183.36 308.79 186.32 311.83 C 189.80 315.41 193.44 318.83 197.02 322.32 C 198.23 323.51 199.42 324.72 200.60 325.94 C 205.60 331.07 210.46 336.35 215.82 341.12 C 217.60 342.70 219.43 344.24 221.14 345.90 C 226.16 351.61 231.36 357.15 236.98 362.28 C 237.24 362.52 237.76 363.01 238.03 363.25 C 243.12 368.57 248.29 373.82 253.54 378.99 C 257.95 383.45 262.37 387.90 266.87 392.28 C 272.84 397.21 277.02 406.34 285.89 405.91 C 284.27 411.40 289.18 414.96 292.94 417.94 C 299.41 425.48 307.19 431.79 313.34 439.60 C 295.64 440.10 277.94 439.48 260.24 439.90 C 252.61 439.75 244.96 439.51 237.34 440.21 C 233.39 440.13 229.44 439.71 225.49 439.88 C 222.70 436.58 219.65 433.51 216.57 430.50 C 210.00 423.69 203.40 416.91 196.41 410.52 C 193.27 407.34 190.27 404.03 187.11 400.88 C 178.45 392.24 169.90 383.47 161.10 374.97 C 160.28 374.17 159.47 373.37 158.66 372.57 C 142.78 356.55 127.00 340.42 110.72 324.81 C 108.96 323.08 107.24 321.31 105.54 319.53 C 101.36 314.98 96.93 310.69 92.33 306.57 C 88.13 302.34 83.64 298.35 79.85 293.74 C 79.31 293.01 78.79 292.27 78.28 291.54 C 80.66 288.61 83.05 285.69 85.08 282.50 C 92.14 277.46 97.05 270.16 103.15 264.10 C 111.52 255.44 119.60 246.51 127.60 237.50 C 136.33 228.32 144.89 218.98 153.39 209.59 C 160.00 202.85 166.40 195.92 172.54 188.75 C 182.57 178.46 192.08 167.68 201.95 157.24 C 208.13 150.62 214.47 144.14 220.05 136.99 Z" />
<path fill="#040707" opacity="1.00" d=" M 666.23 130.95 C 687.10 130.83 708.26 132.66 728.96 129.93 C 740.38 140.19 749.97 152.28 760.71 163.23 C 773.40 177.17 786.12 191.09 799.11 204.76 C 819.15 226.68 839.30 248.49 859.52 270.24 C 865.83 277.57 872.88 284.22 878.91 291.79 C 861.17 310.20 842.23 327.47 825.08 346.43 C 821.74 349.63 818.06 352.46 814.85 355.80 C 812.50 358.23 810.35 360.85 807.96 363.25 C 807.02 364.14 806.07 365.01 805.13 365.88 C 801.89 368.74 798.92 371.86 795.97 375.01 C 787.91 382.85 779.91 390.77 772.11 398.88 C 759.50 411.02 747.20 423.47 734.95 435.97 C 729.34 442.20 720.16 439.23 712.84 439.86 C 694.18 439.65 675.53 439.75 656.87 439.79 C 655.71 439.80 654.55 439.82 653.40 439.85 C 650.23 439.80 647.06 439.60 643.89 439.45 C 644.56 438.19 645.22 436.92 645.94 435.70 C 647.64 434.23 649.34 432.77 651.00 431.26 C 663.04 419.71 674.60 407.67 686.51 396.00 C 694.71 387.72 702.98 379.53 711.12 371.20 C 723.65 359.07 735.91 346.65 748.15 334.23 C 750.13 332.22 752.13 330.23 754.16 328.25 C 766.45 315.99 779.00 303.96 790.90 291.31 C 788.38 288.76 785.86 286.19 783.42 283.57 C 776.81 276.18 770.02 268.97 763.28 261.71 C 758.74 256.55 754.06 251.52 749.20 246.66 C 748.11 245.54 747.05 244.40 746.02 243.25 C 742.65 239.32 739.16 235.50 735.51 231.83 C 735.23 231.55 734.68 230.99 734.41 230.71 C 730.00 225.77 725.84 220.61 721.12 215.97 C 718.82 213.65 716.47 211.40 714.29 208.98 C 707.99 201.20 700.83 194.19 694.11 186.78 C 684.33 176.22 674.75 165.48 664.69 155.18 C 658.06 146.97 650.11 139.91 643.75 131.47 C 648.95 131.23 654.14 130.81 659.35 130.70 C 661.64 130.78 663.93 130.84 666.23 130.95 Z" />
<path fill="#040707" opacity="1.00" d=" M 324.37 131.28 C 352.20 131.72 380.14 135.72 406.63 144.41 C 433.36 153.17 461.40 169.56 470.19 198.06 C 473.65 209.43 474.21 221.86 470.68 233.29 C 468.65 239.17 465.79 244.78 462.06 249.78 C 460.60 251.71 459.08 253.58 457.51 255.43 C 455.99 257.17 454.41 258.86 452.76 260.48 C 447.13 265.69 441.10 270.48 434.74 274.76 C 429.60 277.95 424.30 280.87 418.94 283.67 C 412.74 286.83 406.25 289.36 399.88 292.14 C 402.71 298.83 406.21 305.18 409.56 311.61 C 413.84 320.61 418.32 329.51 422.85 338.38 C 432.20 356.28 440.00 375.10 450.62 392.27 C 452.74 394.53 455.27 396.34 457.82 398.09 C 456.59 398.83 455.36 399.57 454.14 400.32 C 455.89 404.29 457.74 408.21 459.69 412.10 C 464.08 421.33 469.12 430.25 473.07 439.69 C 448.37 439.95 423.66 439.58 398.96 439.88 C 397.44 437.68 395.92 435.49 394.57 433.19 C 388.82 421.38 382.94 409.63 377.01 397.90 C 374.79 393.43 372.56 388.97 370.22 384.56 C 368.73 381.68 367.20 378.82 365.77 375.91 C 363.80 371.78 362.11 367.51 360.02 363.43 C 355.25 354.61 350.90 345.57 346.30 336.66 C 343.84 331.50 341.22 326.43 338.56 321.38 C 336.62 317.54 334.85 313.62 332.96 309.76 C 331.38 306.52 329.63 303.36 327.78 300.27 C 325.98 296.82 324.73 293.09 324.21 289.24 C 324.06 287.84 323.94 286.45 323.86 285.06 C 323.77 283.38 323.72 281.72 323.68 280.05 C 323.65 277.34 323.64 274.63 323.73 271.92 C 323.89 268.76 324.22 265.61 324.54 262.47 C 332.86 260.16 341.27 258.11 349.44 255.29 C 352.74 254.21 356.04 253.16 359.35 252.11 C 360.57 251.72 361.81 251.33 363.03 250.90 C 379.09 245.35 395.80 239.21 408.37 227.36 C 416.05 220.24 412.56 207.98 405.30 201.96 C 387.67 188.71 364.11 185.28 342.57 185.82 C 335.94 184.67 325.65 187.75 322.83 179.68 C 325.87 163.74 323.27 147.39 324.37 131.28 Z" />
<path fill="#040707" opacity="1.00" d=" M 570.32 131.33 C 591.10 131.16 611.89 131.14 632.67 131.34 C 633.02 144.31 632.56 157.28 632.97 170.24 C 633.97 183.01 628.52 194.83 625.78 207.02 C 620.14 224.86 615.24 242.93 610.15 260.94 C 609.73 262.65 609.34 264.37 608.96 266.10 C 617.11 266.70 625.46 265.35 633.44 267.62 C 632.61 273.88 632.60 280.22 633.21 286.50 C 634.00 286.85 634.80 287.22 635.61 287.58 C 630.70 296.52 633.65 307.02 632.71 316.70 C 618.40 318.10 595.94 310.97 591.76 330.60 C 588.28 342.10 584.79 353.59 581.66 365.18 C 579.10 372.55 576.78 379.99 574.87 387.55 C 574.57 388.56 574.26 389.58 573.95 390.60 C 568.00 406.57 565.21 423.80 558.27 439.28 C 535.79 440.92 513.07 438.55 490.56 440.45 C 489.25 440.57 487.96 440.71 486.66 440.85 C 485.90 439.56 485.15 438.27 484.46 436.96 C 484.89 435.38 485.33 433.81 485.78 432.24 C 487.93 425.34 489.73 418.35 491.24 411.28 C 491.56 409.98 491.92 408.69 492.31 407.42 C 493.21 404.51 494.18 401.63 495.08 398.73 C 496.72 393.43 498.16 388.08 499.70 382.76 C 502.91 371.50 506.09 360.23 509.09 348.91 C 509.82 346.21 510.52 343.51 511.27 340.83 C 512.49 336.73 513.76 332.65 514.93 328.53 C 513.31 328.78 511.70 329.04 510.09 329.29 C 511.28 328.17 512.50 327.06 513.71 325.96 C 512.91 324.65 512.12 323.33 511.34 322.02 C 522.42 321.46 519.36 304.06 523.96 296.05 C 526.39 287.44 528.82 278.84 531.28 270.24 C 531.43 269.66 531.73 268.49 531.88 267.90 C 535.10 256.32 538.26 244.71 541.43 233.12 C 542.58 229.18 543.66 225.22 544.73 221.27 C 548.61 208.40 552.18 195.44 555.72 182.47 C 560.83 165.49 565.10 148.28 570.32 131.33 Z" />
</g>
<g id="#d5d5d5ff">
<path fill="#d5d5d5" opacity="1.00" d=" M 625.54 229.74 C 632.26 225.81 642.44 220.62 649.06 227.33 C 649.64 228.45 650.16 229.59 650.72 230.73 C 656.34 240.60 671.33 241.31 674.12 254.28 C 674.72 255.26 675.36 256.22 676.05 257.15 C 680.64 262.24 686.72 265.84 690.45 271.74 C 697.66 267.33 700.19 258.92 705.28 252.65 C 704.24 258.69 700.91 263.88 697.72 268.97 C 698.80 269.27 699.90 269.57 701.00 269.88 C 704.64 261.92 709.24 254.60 714.38 247.56 C 715.08 246.34 715.77 245.11 716.52 243.91 C 721.70 238.58 727.86 234.20 734.41 230.71 C 734.68 230.99 735.23 231.55 735.51 231.83 C 731.08 235.10 726.47 238.15 722.47 241.95 C 720.86 243.41 719.29 244.91 717.86 246.54 C 711.77 255.20 712.14 270.11 699.75 272.71 C 689.12 274.92 683.85 285.56 678.97 294.16 C 672.51 308.60 645.47 320.40 661.25 337.83 C 665.45 348.69 673.13 357.91 680.80 366.51 C 678.84 366.01 676.87 365.53 674.90 365.08 C 674.91 375.76 680.76 384.93 685.71 393.95 C 685.91 394.46 686.31 395.49 686.51 396.00 C 674.60 407.67 663.04 419.71 651.00 431.26 C 644.55 423.81 642.21 413.66 635.35 406.62 C 626.36 399.18 608.46 402.94 606.37 388.42 C 600.03 379.42 592.78 368.32 581.66 365.18 C 584.79 353.59 588.28 342.10 591.76 330.60 C 602.24 333.13 611.94 337.87 621.47 342.81 C 629.97 346.43 639.46 358.18 648.24 348.42 C 649.92 344.55 650.37 340.25 649.78 336.09 C 642.33 320.35 658.86 310.32 665.39 298.45 C 677.27 288.31 682.30 271.64 673.14 257.73 C 672.52 256.78 671.86 255.87 671.20 254.97 C 665.71 244.97 653.42 241.88 648.32 231.80 C 647.29 231.83 646.26 231.88 645.25 231.93 C 646.00 230.70 646.75 229.49 647.51 228.27 C 640.35 224.43 632.83 228.93 625.54 229.74 Z" />
<path fill="#d5d5d5" opacity="1.00" d=" M 236.77 254.24 C 243.44 260.51 238.71 273.85 248.64 277.35 C 250.02 277.99 251.41 278.62 252.76 279.32 C 254.25 280.12 255.69 281.02 257.17 281.84 C 267.46 285.68 278.67 286.86 289.59 287.28 C 295.76 287.56 301.94 287.51 308.11 287.10 C 311.40 286.90 314.68 286.57 317.94 286.05 C 319.91 285.73 321.88 285.38 323.86 285.06 C 323.94 286.45 324.06 287.84 324.21 289.24 C 317.10 290.18 309.91 290.08 302.77 290.71 C 294.65 291.51 286.48 291.12 278.43 289.84 C 267.53 288.50 256.18 286.97 247.54 279.51 C 238.88 274.77 236.80 263.28 236.77 254.24 Z" />
<path fill="#d5d5d5" opacity="1.00" d=" M 903.06 264.40 C 903.72 262.58 904.49 260.80 905.28 259.02 C 906.23 262.51 906.93 266.09 907.02 269.72 C 906.93 279.25 907.92 290.07 914.80 297.33 C 918.15 299.07 921.71 300.43 925.37 301.40 C 936.73 305.77 948.11 305.43 960.00 303.84 L 960.00 341.14 C 957.98 322.86 936.96 319.56 922.77 314.36 C 918.56 313.16 914.36 311.88 910.36 310.11 C 906.12 307.53 902.12 304.60 898.00 301.84 C 903.06 290.37 904.21 276.86 903.06 264.40 Z" />
<path fill="#d5d5d5" opacity="1.00" d=" M 418.94 283.67 C 424.30 280.87 429.60 277.95 434.74 274.76 C 445.35 278.22 456.05 281.45 466.81 284.43 C 476.19 286.63 485.69 284.08 495.06 283.17 C 505.95 285.37 517.12 285.24 523.96 296.05 C 519.36 304.06 522.42 321.46 511.34 322.02 C 501.29 317.28 490.32 319.75 479.75 319.51 C 477.61 319.18 475.49 318.71 473.34 318.47 C 456.10 324.10 439.47 331.20 422.85 338.38 C 418.32 329.51 413.84 320.61 409.56 311.61 C 420.15 306.39 429.85 299.32 438.63 291.49 C 432.52 287.85 425.80 285.41 418.94 283.67 Z" />
<path fill="#d5d5d5" opacity="1.00" d=" M 336.25 340.31 C 339.61 339.12 342.95 337.86 346.30 336.66 C 350.90 345.57 355.25 354.61 360.02 363.43 C 356.37 367.22 352.23 370.48 348.07 373.69 C 344.39 376.76 340.49 379.58 337.04 382.91 C 335.33 384.72 333.80 386.68 332.22 388.60 C 327.93 394.33 321.36 397.51 315.71 401.66 C 314.67 402.36 313.62 403.04 312.58 403.74 C 308.79 406.13 305.29 408.99 302.40 412.44 C 303.06 412.59 304.38 412.88 305.04 413.03 C 309.71 414.04 314.52 413.57 319.25 413.71 C 324.29 414.48 329.20 415.90 334.21 416.80 C 332.97 413.08 331.61 409.39 330.74 405.56 C 336.20 411.32 343.93 426.45 352.20 416.03 C 353.23 414.86 354.21 413.64 355.15 412.40 C 361.44 403.85 365.28 393.88 370.22 384.56 C 372.56 388.97 374.79 393.43 377.01 397.90 C 371.06 404.69 365.93 412.32 358.80 417.98 C 357.65 418.92 356.50 419.86 355.39 420.84 C 345.47 426.84 359.45 430.67 362.98 436.15 C 373.05 446.37 387.24 450.03 399.94 455.72 C 408.06 476.40 419.79 497.11 440.23 507.75 C 454.79 516.75 466.85 530.72 483.37 535.95 C 510.43 531.20 537.99 522.91 560.31 506.29 C 566.24 502.72 563.94 490.23 572.60 491.26 C 587.72 502.39 599.26 519.30 618.05 524.97 C 636.22 529.85 656.14 537.02 674.60 529.62 C 681.11 527.88 687.91 529.10 694.52 528.11 C 688.34 501.94 665.48 486.42 647.10 468.85 C 637.79 463.54 626.20 464.67 616.16 461.00 C 610.13 466.50 603.97 472.00 596.93 476.19 C 601.66 471.00 607.58 466.93 611.43 460.94 C 582.10 460.67 552.72 460.45 523.56 462.52 C 499.82 469.66 484.42 490.68 469.91 509.35 C 473.29 494.36 487.87 486.06 495.44 473.44 C 499.84 465.84 508.98 464.44 515.21 459.04 C 506.37 456.52 497.14 456.08 488.15 454.36 C 492.13 450.01 489.60 444.92 486.66 440.85 C 487.96 440.71 489.25 440.57 490.56 440.45 C 494.45 446.16 498.83 453.76 506.92 452.84 C 521.82 452.69 536.25 460.21 551.11 456.36 C 559.64 455.72 568.38 458.67 576.76 455.62 C 590.01 450.96 604.20 454.40 617.76 451.74 C 623.92 450.94 630.09 452.20 636.01 453.85 C 648.87 457.66 660.32 464.96 673.50 468.09 C 669.36 457.86 661.10 450.01 656.87 439.79 C 675.53 439.75 694.18 439.65 712.84 439.86 C 728.72 460.07 726.18 489.16 744.07 507.89 C 755.24 513.62 756.48 528.91 768.24 533.60 C 793.19 536.63 817.58 551.41 842.97 544.82 C 864.97 545.42 892.47 537.78 898.87 513.91 C 916.09 503.39 925.85 475.91 907.29 461.74 C 893.60 456.88 876.63 462.41 863.53 453.84 C 876.39 450.06 889.17 455.90 902.06 453.68 C 900.98 443.21 897.55 432.45 890.73 424.31 C 874.59 415.38 865.80 397.58 850.25 387.68 C 849.05 387.02 847.83 386.41 846.59 385.84 C 840.09 382.02 832.17 382.48 825.52 379.49 C 820.27 372.88 812.82 368.99 805.13 365.88 C 806.07 365.01 807.02 364.14 807.96 363.25 C 821.17 366.93 826.99 381.72 842.31 379.83 C 842.87 379.94 844.00 380.15 844.57 380.26 C 845.63 380.45 846.71 380.66 847.79 380.88 C 849.81 381.30 851.83 381.77 853.82 382.41 C 858.10 384.35 861.98 387.02 865.91 389.58 C 867.59 388.27 869.26 386.94 870.96 385.64 C 866.47 393.49 869.14 401.76 876.37 406.66 C 883.00 418.09 896.02 422.16 905.27 430.78 C 902.68 429.95 900.12 429.02 897.56 428.12 C 901.84 437.63 906.07 447.17 910.28 456.71 C 915.17 457.42 919.98 458.63 924.60 460.42 C 928.84 439.30 926.72 412.67 946.60 398.56 C 950.45 390.28 952.64 381.31 960.00 374.93 L 960.00 562.30 C 945.39 572.18 938.18 588.83 924.91 600.00 L 707.73 600.00 C 688.01 596.05 667.44 593.60 649.80 583.18 C 641.84 577.95 631.58 581.46 623.54 576.55 C 610.94 569.31 597.50 563.29 583.47 559.52 C 554.41 557.24 525.71 564.13 497.46 569.55 C 479.84 572.53 472.16 589.76 459.60 600.00 L 455.39 600.00 C 463.61 593.87 467.16 584.08 473.51 576.44 C 473.89 576.00 474.65 575.12 475.03 574.68 C 478.36 570.09 480.26 564.67 482.31 559.43 C 474.50 558.50 466.87 556.67 459.51 553.92 C 457.65 553.30 455.80 552.66 453.98 551.93 C 441.63 545.69 430.48 536.42 424.66 523.59 C 422.29 518.19 418.32 513.79 414.03 509.84 C 404.98 498.71 393.09 488.70 389.70 474.15 C 388.66 470.20 384.96 468.01 381.97 465.65 C 378.50 463.06 375.36 460.08 372.03 457.31 C 362.33 450.76 354.11 442.00 343.94 436.25 C 331.74 451.06 316.38 463.66 305.67 479.59 C 307.15 493.63 308.41 507.90 308.92 522.12 C 308.91 523.45 308.88 524.78 308.83 526.12 C 305.44 551.17 303.06 579.67 321.32 600.00 L 309.90 600.00 C 302.16 578.45 299.08 554.68 302.06 531.83 C 292.66 538.11 283.31 545.97 279.89 557.16 C 281.13 565.09 284.78 572.53 285.53 580.64 C 286.78 590.73 297.34 594.01 303.93 600.00 L 300.21 600.00 C 295.80 597.15 290.87 595.01 285.53 595.05 C 284.71 583.67 279.17 574.16 274.36 564.18 C 271.63 567.36 268.93 570.59 265.69 573.27 C 266.94 566.32 275.26 561.81 273.01 554.21 C 268.39 533.47 262.74 512.99 255.45 493.01 C 247.63 507.97 243.13 524.84 233.64 538.74 C 234.99 534.35 236.62 530.04 237.37 525.49 C 228.26 534.49 218.64 543.31 206.43 548.12 C 219.11 535.52 236.65 526.44 244.58 509.56 C 248.73 489.55 252.96 467.40 242.63 448.53 C 230.48 453.07 219.03 459.30 206.93 463.98 C 205.17 464.85 203.43 465.75 201.66 466.61 C 190.01 473.23 177.96 478.50 166.69 485.77 C 163.68 487.76 160.53 489.53 157.60 491.65 C 137.07 506.22 128.50 531.38 110.31 548.32 C 96.18 567.10 70.84 576.15 63.67 600.00 L 57.10 600.00 C 57.20 595.97 57.23 591.93 56.90 587.91 C 49.99 591.79 43.96 597.24 36.43 600.00 L 29.25 600.00 C 52.43 589.73 72.20 571.46 87.75 551.70 C 106.89 535.10 130.24 520.76 140.18 496.21 C 142.34 487.59 153.08 489.12 158.15 483.21 C 160.58 481.04 162.99 478.84 165.64 476.94 C 175.91 467.81 189.73 465.38 201.58 459.13 C 202.74 458.53 203.90 457.92 205.06 457.32 C 216.08 452.10 226.28 445.34 237.34 440.21 C 244.96 439.51 252.61 439.75 260.24 439.90 C 257.51 441.55 254.92 443.40 252.34 445.27 C 254.36 463.48 260.63 480.72 267.31 497.66 C 271.34 515.37 273.53 533.53 278.34 551.06 C 292.53 534.54 304.15 511.07 295.88 489.02 C 293.66 483.14 292.94 475.78 298.18 471.21 C 311.31 458.39 326.93 447.47 336.40 431.41 C 330.29 427.84 324.05 424.05 316.94 422.96 C 315.76 422.78 314.57 422.61 313.40 422.47 C 306.45 421.59 299.74 419.53 292.94 417.94 C 289.18 414.96 284.27 411.40 285.89 405.91 C 277.02 406.34 272.84 397.21 266.87 392.28 C 278.00 385.93 289.58 380.34 299.11 371.57 C 299.27 372.87 299.44 374.17 299.61 375.48 C 302.85 374.20 306.08 372.86 309.37 371.72 C 317.66 370.50 324.24 365.14 326.37 356.91 C 308.39 355.62 290.17 354.51 273.54 362.96 C 265.27 365.77 256.21 369.83 253.54 378.99 C 248.29 373.82 243.12 368.57 238.03 363.25 C 247.16 364.11 255.89 360.94 264.34 357.92 C 272.97 356.66 278.79 349.78 286.64 346.87 C 291.47 348.67 296.69 348.31 301.55 346.79 C 304.89 346.67 308.24 346.42 311.54 345.83 C 316.78 345.17 321.96 344.13 327.11 342.95 C 328.89 342.56 330.65 342.10 332.40 341.58 C 333.69 341.18 334.97 340.75 336.25 340.31 M 295.06 534.44 C 300.81 531.54 304.95 525.70 300.80 519.52 C 297.25 523.72 296.54 529.33 295.06 534.44 Z" />
<path fill="#d5d5d5" opacity="1.00" d=" M 198.51 438.20 C 204.75 436.18 210.71 433.43 216.57 430.50 C 219.65 433.51 222.70 436.58 225.49 439.88 C 217.71 442.90 209.87 445.73 201.91 448.23 C 200.63 448.67 199.37 449.13 198.11 449.59 C 188.35 453.14 178.42 457.27 167.90 457.43 C 163.90 457.33 159.90 457.30 155.92 457.65 C 151.67 457.97 147.43 458.52 143.22 459.15 C 142.93 462.18 142.68 465.23 142.37 468.27 C 141.82 465.51 141.35 462.74 140.88 459.97 C 98.65 471.01 70.32 509.32 29.49 523.65 C 36.16 518.25 44.34 514.93 50.38 508.73 C 29.95 507.34 15.84 523.75 0.00 533.70 L 0.00 531.62 C 12.84 521.63 25.52 509.95 41.83 506.18 C 43.52 505.75 45.22 505.36 46.91 504.90 C 80.75 492.67 106.79 466.25 139.99 452.79 C 140.57 452.60 141.71 452.20 142.29 452.00 C 146.02 450.72 149.81 449.61 153.68 448.83 C 159.71 448.02 165.79 447.46 171.72 446.05 C 179.71 444.25 187.56 441.89 195.31 439.26 C 196.37 438.91 197.44 438.55 198.51 438.20 Z" />
</g>
</svg>
